<?xml version="1.0" encoding="utf-8"?>
<!-- Generator: Adobe Illustrator 16.0.4, SVG Export Plug-In . SVG Version: 6.00 Build 0)  -->
<!DOCTYPE svg PUBLIC "-//W3C//DTD SVG 1.1//EN" "http://www.w3.org/Graphics/SVG/1.1/DTD/svg11.dtd">
<svg version="1.1" id="Layer_1" xmlns="http://www.w3.org/2000/svg" xmlns:xlink="http://www.w3.org/1999/xlink" x="0px" y="0px"
	 width="500px" height="372px" viewBox="0 16 500 372" enable-background="new 0 16 500 372" xml:space="preserve">
<path fill="#FFFFFF" stroke="#EB008B" stroke-miterlimit="10" stroke-dasharray="6" d="M26.862,338.466l53.923,23.336
	l85.107-244.929c0,0,21.568-56.486,58.593-63.98c0,0-90.253,28.201-113.834,66.58C87.071,157.851,26.862,338.466,26.862,338.466z"/>
<g>
	<g>
		<g>
			<defs>
				<path id="SVGID_1_" d="M115.737,112.009c0,0,33.64-31.838,60.451-40.114L87.971,326.198l-40.458-17.453L115.737,112.009z"/>
			</defs>
			<clipPath id="SVGID_2_">
				<use xlink:href="#SVGID_1_"  overflow="visible"/>
			</clipPath>
			<g clip-path="url(#SVGID_2_)">
				<g>
					<g>
						
							<text transform="matrix(0.3217 -0.9468 0.9468 0.3217 83.8516 318.4199)" font-family="'Helvetica-Bold'" font-size="42.8235">SPACES OF</text>
					</g>
				</g>
			</g>
		</g>
	</g>
</g>
<polyline fill="none" stroke="#EB008B" stroke-miterlimit="10" stroke-dasharray="6" points="171.14,107.582 492.242,106.544 
	491.385,52.139 224.487,52.892 "/>
<g>
	<g>
		<g>
			<g>
				<defs>
					<path id="SVGID_3_" d="M173.809,105.711c0,0,14.394-42.033,45.487-50.094l245.86,6.91l1.728,32.245L444.428,96.5H430.61
						l-63.337,2.878L173.809,105.711z"/>
				</defs>
				<clipPath id="SVGID_4_">
					<use xlink:href="#SVGID_3_"  overflow="visible"/>
				</clipPath>
				<g clip-path="url(#SVGID_4_)">
					<text transform="matrix(1 0 0 1 141.7944 95.0586)" font-family="'Helvetica-Bold'" font-size="42.8285">OF LEARNING</text>
				</g>
			</g>
		</g>
	</g>
</g>
<path fill="#FFFFFF" d="M366.812,107.582c0,0,13.09,3.334,10.709-1.87c-2.379-5.205-3.568-19.88,8.728-16.708
	c12.295,3.173,15.462,1.984,22.604,2.38c7.146,0.396,40.065,13.486,42.445,19.039c2.38,5.553-70.604,7.536-74.174,6.743
	C373.557,116.373,366.812,107.582,366.812,107.582z"/>
<path fill="#FFFFFF" d="M117.323,119.942c0,0,20.229,0.396,19.436,5.95c-0.793,5.553-5.95,8.726-4.76,13.882
	c1.19,5.156-1.167,14.28-4.947,16.263c-3.779,1.983-3.383,9.916-7.349,12.692c-3.966,2.777-33.718-0.711-37.045-6.346
	C79.332,156.748,102.646,116.373,117.323,119.942z"/>
<path d="M448.037,151.62c2.714-3.407,4.873-6.889,6.095-10.308c3.198-8.944,5.585-18.371,1.44-26.712
	c-3.89-7.826-12.794-13.706-28.024-18.505c-14.519-4.575-21.714-6.614-25.663-7.273c-3.695-0.617-5.515-0.191-6.904,1.747
	c-6.84-2.595-13.388-3.047-18.312,1.014c-3.165,2.612-4.642,6.104-4.153,9.836c0.229,1.758,0.903,3.49,1.922,5.082
	c-4.828-0.457-7.428,1.197-8.801,2.877c-3.254,3.987-1.824,10.471,0.389,14.812c0.377,0.742,0.804,1.428,1.263,2.076
	c-2.125,0.553-4.013,1.898-5.343,3.898c-3.055,4.589-2.59,11.278,1.24,17.894c2.608,4.507,5.98,7.172,9.241,9.75
	c2.871,2.27,5.524,4.369,7.511,7.6c-0.041,0.016-0.082,0.024-0.121,0.042c-0.121,0.058-12.018,5.851-6.645,19.665
	c2.111,5.427,7.229,10.969,15.207,10.969c0.655,0,1.333-0.043,2.027-0.121l5.537,12.854l1.891-0.442
	c0.517-0.123,12.807-3.041,26.373-9.299c18.536-8.554,29.867-18.8,33.679-30.453l0.341-1.043L448.037,151.62z M398.648,203.377
	l-4.034-9.361c0.141-0.406,0.175-0.854,0.065-1.303c-0.304-1.244-1.555-2.011-2.8-1.707c-9.95,2.41-13.729-5.883-14.39-7.569
	c-3.717-9.557,3.468-13.386,4.31-13.796c0.022-0.011,0.04-0.027,0.062-0.038c0.591,1.77,1.037,3.815,1.307,6.237
	c0.133,1.185,1.137,2.062,2.301,2.062c0.088,0,0.174-0.005,0.26-0.014c1.271-0.142,2.188-1.288,2.049-2.561
	c-1.375-12.379-7.021-16.84-12.478-21.155c-3.054-2.414-5.938-4.695-8.104-8.436c-3.445-5.952-2.979-10.62-1.394-13.003
	c1.024-1.54,2.582-2.298,4.276-2.08c0.449,0.058,0.885-0.023,1.27-0.201c2.154,1.686,4.567,3.037,6.942,4.364
	c2.831,1.583,5.76,3.221,8.257,5.418c6.003,5.279,10.047,15.214,10.104,15.349c0.361,0.905,1.23,1.455,2.15,1.455
	c0.286,0,0.578-0.054,0.861-0.167c1.188-0.476,1.766-1.825,1.289-3.013c-0.182-0.45-4.489-11.078-11.342-17.105
	c-2.869-2.523-6.017-4.282-9.06-5.983c-4.481-2.507-8.354-4.672-10.399-8.686c-1.983-3.893-2.373-8.003-0.926-9.775
	c1.2-1.47,4.074-1.668,8.096-0.556c10.895,3.014,18.546,6.393,21.547,9.513c3.879,4.035,16.56,19.416,16.688,19.571
	c0.814,0.987,2.274,1.128,3.264,0.314c0.988-0.814,1.13-2.275,0.313-3.263c-0.523-0.638-12.923-15.674-16.924-19.835
	c-3.581-3.726-10.991-6.818-18.007-9.083c-0.223-0.285-0.504-0.528-0.854-0.688c-3.354-1.541-5.859-4.54-6.24-7.463
	c-0.28-2.153,0.562-4.057,2.508-5.661c3.242-2.676,8.304-2.549,15.127,0.353c0.095,0.052,0.197,0.09,0.296,0.127
	c5.337,2.316,11.73,6.303,19.163,11.958c1.755,1.335,3.479,2.611,5.146,3.844c6.807,5.032,12.684,9.377,16.893,14.953
	c0.455,0.604,1.147,0.922,1.852,0.922c0.486,0,0.979-0.152,1.396-0.468c1.021-0.771,1.226-2.225,0.453-3.247
	c-4.611-6.112-11.032-10.861-17.834-15.889c-1.654-1.224-3.365-2.49-5.098-3.805c-4.765-3.627-10.315-7.562-15.933-10.541
	c4.769,0.818,15.234,4.048,25.075,7.148c13.757,4.334,22.021,9.616,25.267,16.146c3.186,6.411,1.643,13.867-1.653,23.089
	c-1.174,3.282-3.39,6.685-6.192,10.038c-0.118,0.113-0.223,0.238-0.312,0.371c-11.575,13.614-32.631,26.284-32.896,26.443
	c-1.102,0.656-1.459,2.079-0.805,3.178c0.437,0.727,1.203,1.13,1.993,1.13c0.403,0,0.813-0.105,1.188-0.328
	c1.058-0.632,19.903-11.973,32.142-25.291l8.239,12.906C445.045,189.708,407.508,200.99,398.648,203.377z"/>
<g>
	<g>
		<g>
			<defs>
				<path id="SVGID_5_" d="M86.327,173.097l2.238-5.581c0,0,20.291,12.179,30.113,5.581c9.822-6.598,37.822-44.264,27.822-55.764
					s-108-15.5-123.333,17.833s-38.667,115.333,17.333,122l16.542-5.807L86.327,173.097z"/>
			</defs>
			<clipPath id="SVGID_6_">
				<use xlink:href="#SVGID_5_"  overflow="visible"/>
			</clipPath>
			<path clip-path="url(#SVGID_6_)" d="M136.552,122.069c-5.062-4.973-37.654-5.603-41.615-5.375
				c-7.072,0.403-16.122,5.076-16.503,5.274c-0.281,0.146-0.519,0.342-0.71,0.571c-2.084-0.213-3.936-0.295-5.467-0.211
				c-12.083,0.666-26.408,15.048-29.494,18.295c-14.736,0.477-18.945,14.706-25.187,35.846c-5.523,18.708-2.726,31.598-1.029,36.782
				L9.2,221.327c-0.524,0.575-0.724,1.377-0.532,2.133c0.279,1.099,2.434,5.614,18.427,17.694
				c5.376,4.063,12.347,6.134,20.471,6.134c2.914,0,5.977-0.265,9.166-0.802c8.941-1.504,15.708-4.555,15.991-4.686
				c0.882-0.4,1.421-1.307,1.352-2.275l-1.012-14.168c1.242-0.305,2.521-0.656,3.815-1.064c12.21-3.85,19.902-10.751,22.243-19.959
				c1.197-4.707,1.937-7.956,2.477-10.329c1.483-6.517,1.483-6.517,6.201-14.675c0.699-1.209,1.505-2.603,2.422-4.201
				c5.405,0.422,8.924-1.29,11.444-5.466c0.845-1.399,3.005-4.987,2.063-9.08c0.159,0.008,0.318,0.021,0.474,0.021
				c0.907,0,1.78-0.132,2.622-0.396c2.693-0.843,4.878-3.026,6.497-6.489c2.203-4.71,2.708-8.929,1.46-12.199
				c-0.205-0.536-0.46-1.037-0.751-1.513c1.806-1.002,3.256-2.664,4.192-4.889C140.126,130.59,139.393,124.858,136.552,122.069z
				 M97.077,192.977c-0.535,2.347-1.267,5.563-2.449,10.214c-2.825,11.115-14.812,15.908-24.039,17.969
				c-0.051,0-0.099-0.01-0.15-0.008c-0.282,0.022-0.544,0.099-0.788,0.207c-5.713,1.19-10.158,1.332-10.304,1.336
				c-1.28,0.029-2.294,1.09-2.265,2.369c0.029,1.263,1.061,2.266,2.316,2.266c0.018,0,0.036,0,0.054,0
				c0.229-0.006,3.938-0.104,9.031-1.005l0.848,11.866c-5.648,2.217-26.264,9.223-39.441-0.734
				c-10.814-8.169-14.737-12.471-16.104-14.28l5.552-6.104c0.09,0.012,0.18,0.021,0.271,0.021c0.339,0,0.684-0.076,1.009-0.232
				c1-0.484,1.492-1.594,1.24-2.633c0.544-0.924,0.387-2.135-0.439-2.886c-0.223-0.204-0.476-0.35-0.742-0.45
				c-1.472-5.059-3.525-16.613,1.347-33.109c7.228-24.479,10.791-33.018,22.369-32.524c4.939,0.203,9.922-0.429,14.317-0.987
				c8.83-1.12,13.091-1.321,14.007,1.673c0.793,2.59,0.154,5.385-1.752,7.669c-3.89,4.659-12.229,6.61-22.883,5.354l-2.87-0.337
				l0.293,2.876c0.49,4.818,0.018,12.393-2.571,14.148c-1.06,0.718-1.336,2.159-0.618,3.219c0.719,1.061,2.16,1.337,3.219,0.618
				c4.463-3.026,4.88-11.223,4.753-15.654c8.546,0.632,14.386-0.792,18.323-2.736c-1.787,7.706-11.78,13.509-11.897,13.576
				c-1.111,0.633-1.5,2.047-0.868,3.159c0.426,0.752,1.21,1.174,2.018,1.174c0.388,0,0.781-0.098,1.143-0.304
				c0.599-0.34,13.161-7.604,14.422-18.191c7.362,3.511,24.575,11.568,31.944,13.746c-0.578,1.004-1.109,1.922-1.587,2.75
				C98.811,185.611,98.716,185.775,97.077,192.977z M117.695,167.267c-1.358,2.251-3.125,4.165-9.737,2.876
				c-5.088-0.991-23.508-9.498-33.043-14.056c2.617-3.419,3.436-7.575,2.236-11.499c-0.718-2.346-2.105-3.793-3.953-4.645
				c0.338,0.024,0.678,0.056,1.022,0.099c4.086,0.51,18.875,7.021,29.672,11.773c2.893,1.273,5.632,2.479,8.031,3.514
				c4.014,1.732,6.5,3.782,7.189,5.931C119.788,163.364,118.775,165.478,117.695,167.267z M129.12,151.755
				c-1.045,2.235-2.283,3.59-3.683,4.029c-1.507,0.472-3.523-0.011-5.988-1.429c-1.521-1.205-3.416-2.302-5.689-3.282
				c-2.389-1.031-5.117-2.231-7.999-3.5c-14.849-6.537-26.557-11.58-30.965-12.13c-5.677-0.708-10.834,0.617-15.77,4.051
				c-0.034,0.022-0.059,0.052-0.09,0.077c-0.27,0.034-0.54,0.068-0.811,0.103c-2.737,0.348-5.714,0.721-8.71,0.892
				c1.504-1.417,3.372-3.088,5.469-4.771c6.889-5.525,12.984-8.58,17.627-8.835c11.81-0.648,48.109,10.466,54.998,13.415
				c1.505,0.644,2.466,1.56,2.938,2.798C131.227,145.211,130.755,148.259,129.12,151.755z M133.948,133.319
				c-0.824,1.958-2.124,2.999-3.913,3.126c-0.229-0.115-0.457-0.23-0.7-0.334c-5.087-2.178-27.23-9.261-43.559-12.351
				c2.862-1.124,6.428-2.268,9.424-2.438c8.759-0.499,35.334,1.448,38.104,4.055C134.636,126.685,135.194,130.358,133.948,133.319z"
				/>
		</g>
	</g>
</g>
</svg>
