<?xml version="1.0" encoding="utf-8"?>
<!-- Generator: Adobe Illustrator 16.0.4, SVG Export Plug-In . SVG Version: 6.00 Build 0)  -->
<!DOCTYPE svg PUBLIC "-//W3C//DTD SVG 1.1//EN" "http://www.w3.org/Graphics/SVG/1.1/DTD/svg11.dtd">
<svg version="1.1" id="Layer_1" xmlns="http://www.w3.org/2000/svg" xmlns:xlink="http://www.w3.org/1999/xlink" x="0px" y="0px"
	 width="500px" height="211.829px" viewBox="0 0 500 211.829" enable-background="new 0 0 500 211.829" xml:space="preserve">
<g>
	<path fill="#231F20" d="M40.738,63.562c0.167,1.18,0.497,2.062,0.984,2.646c0.895,1.064,2.428,1.593,4.599,1.593
		c1.3,0,2.356-0.139,3.167-0.419c1.539-0.537,2.309-1.535,2.309-2.997c0-0.852-0.376-1.512-1.131-1.979
		c-0.754-0.454-1.949-0.857-3.585-1.209l-2.798-0.615c-2.748-0.606-4.636-1.268-5.665-1.979c-1.74-1.191-2.611-3.056-2.611-5.59
		c0-2.312,0.851-4.232,2.553-5.764c1.704-1.531,4.205-2.296,7.505-2.296c2.754,0,5.106,0.722,7.051,2.165
		c1.944,1.441,2.964,3.537,3.058,6.281h-5.186c-0.097-1.553-0.791-2.659-2.086-3.312c-0.86-0.431-1.934-0.647-3.215-0.647
		c-1.426,0-2.562,0.281-3.414,0.84c-0.85,0.561-1.275,1.343-1.275,2.349c0,0.923,0.419,1.613,1.257,2.066
		c0.538,0.302,1.683,0.66,3.432,1.07l4.533,1.067c1.986,0.467,3.476,1.092,4.468,1.872c1.539,1.218,2.31,2.976,2.31,5.275
		c0,2.361-0.913,4.319-2.737,5.879c-1.825,1.558-4.402,2.338-7.731,2.338c-3.4,0-6.075-0.766-8.024-2.305
		c-1.947-1.536-2.921-3.648-2.921-6.335h5.156L40.738,63.562L40.738,63.562z"/>
	<path fill="#231F20" d="M79.919,60.355c-1.512,1.261-3.672,1.892-6.478,1.892h-5.377v9.286h-5.363V45.705h11.09
		c2.558,0,4.596,0.668,6.117,2c1.52,1.33,2.28,3.395,2.28,6.186C82.188,56.938,81.431,59.094,79.919,60.355z M75.799,51.05
		c-0.682-0.571-1.641-0.858-2.871-0.858h-4.865v7.605h4.865c1.23,0,2.188-0.309,2.871-0.928c0.685-0.622,1.025-1.601,1.025-2.945
		C76.824,52.58,76.483,51.623,75.799,51.05z"/>
	<path fill="#231F20" d="M93.05,45.705h6.107l9.137,25.829h-5.853l-1.704-5.31h-9.512l-1.75,5.31h-5.644L93.05,45.705z
		 M92.693,61.775h6.616l-3.262-10.164L92.693,61.775z"/>
	<path fill="#231F20" d="M115.843,48.404c2.08-2.125,4.727-3.189,7.939-3.189c4.301,0,7.443,1.427,9.43,4.275
		c1.098,1.6,1.688,3.209,1.769,4.819h-5.398c-0.344-1.236-0.784-2.175-1.32-2.803c-0.961-1.124-2.387-1.684-4.275-1.684
		c-1.922,0-3.44,0.792-4.55,2.375c-1.109,1.583-1.665,3.821-1.665,6.72c0,2.896,0.584,5.067,1.757,6.511
		c1.171,1.441,2.659,2.162,4.466,2.162c1.85,0,3.262-0.619,4.233-1.856c0.537-0.667,0.983-1.666,1.338-2.996h5.363
		c-0.461,2.812-1.644,5.104-3.544,6.867c-1.901,1.764-4.337,2.646-7.307,2.646c-3.675,0-6.565-1.188-8.667-3.575
		c-2.104-2.394-3.156-5.678-3.156-9.848C112.253,54.32,113.449,50.845,115.843,48.404z"/>
	<path fill="#231F20" d="M160.187,50.278h-13.669v5.485h12.546v4.486h-12.546v6.639h14.3v4.646h-19.574V45.705h18.944
		L160.187,50.278L160.187,50.278z"/>
	<path fill="#231F20" d="M170.707,63.562c0.167,1.18,0.496,2.062,0.984,2.646c0.895,1.064,2.429,1.593,4.599,1.593
		c1.3,0,2.355-0.139,3.167-0.419c1.54-0.537,2.309-1.535,2.309-2.997c0-0.852-0.376-1.512-1.131-1.979
		c-0.753-0.454-1.948-0.857-3.585-1.209l-2.797-0.615c-2.749-0.606-4.637-1.268-5.665-1.979c-1.741-1.191-2.611-3.056-2.611-5.59
		c0-2.312,0.851-4.232,2.554-5.764c1.703-1.531,4.205-2.296,7.504-2.296c2.754,0,5.106,0.722,7.052,2.165
		c1.944,1.441,2.964,3.537,3.058,6.281h-5.187c-0.095-1.553-0.79-2.659-2.084-3.312c-0.863-0.431-1.935-0.647-3.216-0.647
		c-1.427,0-2.562,0.281-3.414,0.84c-0.85,0.561-1.274,1.343-1.274,2.349c0,0.923,0.419,1.613,1.256,2.066
		c0.539,0.302,1.684,0.66,3.432,1.07l4.532,1.067c1.987,0.467,3.475,1.092,4.467,1.872c1.539,1.218,2.31,2.976,2.31,5.275
		c0,2.361-0.913,4.319-2.737,5.879c-1.823,1.558-4.4,2.338-7.73,2.338c-3.4,0-6.076-0.766-8.024-2.305
		c-1.949-1.536-2.922-3.648-2.922-6.335h5.154L170.707,63.562L170.707,63.562L170.707,63.562z"/>
	<path fill="#231F20" d="M224.202,69.238c-1.951,2.012-4.773,3.014-8.463,3.014c-3.691,0-6.514-1.002-8.464-3.014
		c-2.617-2.463-3.924-6.016-3.924-10.654c0-4.732,1.308-8.282,3.924-10.655c1.951-2.009,4.773-3.015,8.464-3.015
		c3.69,0,6.513,1.007,8.463,3.015c2.605,2.373,3.906,5.922,3.906,10.655C228.11,63.223,226.808,66.775,224.202,69.238z
		 M220.828,65.312c1.257-1.576,1.885-3.816,1.885-6.729c0-2.896-0.628-5.136-1.885-6.719c-1.255-1.586-2.952-2.376-5.089-2.376
		c-2.138,0-3.844,0.788-5.117,2.366c-1.271,1.578-1.911,3.82-1.911,6.729s0.637,5.15,1.911,6.729
		c1.274,1.577,2.98,2.365,5.117,2.365C217.875,67.678,219.572,66.89,220.828,65.312z"/>
	<path fill="#231F20" d="M234.023,45.74h18.417v4.538h-13.056v5.942h11.443v4.485h-11.443v10.827h-5.362L234.023,45.74
		L234.023,45.74z"/>
	<path fill="#231F20" d="M269.502,45.705h5.396V66.89h12.896v4.645h-18.291L269.502,45.705L269.502,45.705z"/>
	<path fill="#231F20" d="M312.316,50.278H298.65v5.485h12.549v4.486H298.65v6.639h14.3v4.646h-19.573V45.705h18.939V50.278
		L312.316,50.278z"/>
	<path fill="#231F20" d="M326.337,45.705h6.106l9.136,25.829h-5.851l-1.705-5.31h-9.514l-1.751,5.31h-5.646L326.337,45.705z
		 M325.98,61.775h6.612l-3.26-10.164L325.98,61.775z"/>
	<path fill="#231F20" d="M363.213,46.372c0.949,0.409,1.758,1.01,2.419,1.805c0.546,0.654,0.979,1.379,1.3,2.175
		c0.318,0.793,0.479,1.695,0.479,2.713c0,1.227-0.312,2.433-0.931,3.621c-0.616,1.183-1.642,2.023-3.063,2.513
		c1.188,0.479,2.035,1.16,2.528,2.041c0.496,0.882,0.744,2.228,0.744,4.042v1.733c0,1.179,0.05,1.979,0.143,2.398
		c0.146,0.666,0.479,1.157,0.999,1.472v0.648h-5.959c-0.163-0.573-0.279-1.035-0.351-1.383c-0.14-0.726-0.215-1.467-0.226-2.226
		l-0.036-2.4c-0.023-1.647-0.307-2.747-0.855-3.295c-0.545-0.548-1.569-0.822-3.071-0.822h-5.271v10.127h-5.274V45.705h12.354
		C360.902,45.74,362.264,45.962,363.213,46.372z M352.059,50.191v6.939h5.81c1.153,0,2.017-0.14,2.599-0.42
		c1.02-0.487,1.528-1.458,1.528-2.909c0-1.562-0.494-2.614-1.479-3.152c-0.558-0.303-1.39-0.457-2.498-0.457L352.059,50.191
		L352.059,50.191z"/>
	<path fill="#231F20" d="M374.284,45.705h5.657l10.254,18.01v-18.01h5.027v25.829h-5.396l-10.518-18.326v18.326h-5.025
		L374.284,45.705L374.284,45.705z"/>
	<path fill="#231F20" d="M407.008,71.534h-5.359V45.705h5.359V71.534z"/>
	<path fill="#231F20" d="M413.76,45.705h5.662l10.249,18.01v-18.01h5.03v25.829h-5.396l-10.517-18.326v18.326h-5.028V45.705
		L413.76,45.705z"/>
	<path fill="#231F20" d="M458.925,53.765c-0.409-1.767-1.408-2.996-2.997-3.697c-0.888-0.388-1.873-0.579-2.96-0.579
		c-2.078,0-3.789,0.785-5.125,2.353c-1.337,1.567-2.007,3.927-2.007,7.073c0,3.173,0.723,5.416,2.172,6.734
		c1.449,1.317,3.095,1.975,4.94,1.975c1.812,0,3.297-0.521,4.453-1.559c1.153-1.04,1.866-2.4,2.137-4.085h-5.978v-4.31h10.764v13.86
		h-3.578l-0.541-3.223c-1.041,1.222-1.975,2.083-2.804,2.581c-1.428,0.873-3.181,1.31-5.259,1.31c-3.423,0-6.225-1.183-8.409-3.556
		c-2.278-2.381-3.415-5.64-3.415-9.771c0-4.179,1.146-7.53,3.449-10.051c2.303-2.522,5.346-3.781,9.135-3.781
		c3.28,0,5.919,0.832,7.91,2.496c1.989,1.665,3.135,3.742,3.426,6.23H458.925L458.925,53.765z"/>
</g>
<g>
	<g>
		<polyline fill="none" stroke="#EB008B" stroke-miterlimit="10" points="487.745,86.569 487.745,90.151 484.162,90.151 		"/>
		
			<line fill="none" stroke="#EB008B" stroke-miterlimit="10" stroke-dasharray="6.0342,6.0342" x1="476.958" y1="90.151" x2="19.439" y2="90.151"/>
		<polyline fill="none" stroke="#EB008B" stroke-miterlimit="10" points="15.839,90.151 12.257,90.151 12.257,86.569 		"/>
		
			<line fill="none" stroke="#EB008B" stroke-miterlimit="10" stroke-dasharray="6.6392,6.6392" x1="12.257" y1="78.641" x2="12.257" y2="35.04"/>
		<polyline fill="none" stroke="#EB008B" stroke-miterlimit="10" points="12.257,31.077 12.257,27.492 15.839,27.492 		"/>
		
			<line fill="none" stroke="#EB008B" stroke-miterlimit="10" stroke-dasharray="6.0342,6.0342" x1="23.043" y1="27.492" x2="480.561" y2="27.492"/>
		<polyline fill="none" stroke="#EB008B" stroke-miterlimit="10" points="484.162,27.492 487.745,27.492 487.745,31.077 		"/>
		
			<line fill="none" stroke="#EB008B" stroke-miterlimit="10" stroke-dasharray="6.6392,6.6392" x1="487.745" y1="39.005" x2="487.745" y2="82.605"/>
	</g>
</g>
<polygon fill="#FFFFFF" points="95.624,97.29 105.154,84.812 161.327,87.434 161.327,97.29 "/>
<polygon fill="#FFFFFF" points="354.295,92.718 350.247,83.345 401.938,86.312 414.58,97.29 "/>
<path fill="none" stroke="#000000" stroke-width="11" stroke-linecap="round" stroke-miterlimit="10" d="M178.04,86.992"/>
<path d="M58.493,152.345c-1.002,0-1.931-0.645-2.247-1.649c-5.486-17.431,7.748-35.89,12.096-41.956
	c0.216-0.301,0.407-0.568,0.569-0.798c4.285-5.884,10.611-8.795,22.097-14.079c5.32-2.448,11.937-5.493,20.056-9.612
	c21.666-13.294,33.314-12.271,36.99-6.871c3.135,4.605,0.279,11.43-7.107,16.979c-1.041,0.783-2.518,0.572-3.3-0.468
	c-0.782-1.041-0.572-2.519,0.468-3.3c4.303-3.232,7.74-8.066,6.043-10.559c-1.965-2.886-12.04-3.189-30.708,8.285l-0.167,0.093
	c-8.239,4.183-14.929,7.262-20.305,9.734c-11.117,5.113-16.696,7.682-20.237,12.544c-0.147,0.208-0.346,0.484-0.57,0.798
	c-4.009,5.593-16.209,22.61-11.431,37.795c0.391,1.24-0.299,2.564-1.541,2.955C58.965,152.309,58.727,152.345,58.493,152.345z"/>
<path d="M97.819,182.629c-3.531,0-6.96-0.562-10.243-1.696c-1.23-0.427-1.882-1.769-1.458-2.996c0.424-1.23,1.767-1.887,2.997-1.459
	c21.29,7.354,42.089-15.491,42.963-16.468c2.961-3.305,18.965-29.013,24.882-38.64c0.682-1.107,2.132-1.456,3.242-0.772
	c1.108,0.681,1.456,2.133,0.773,3.24c-2.2,3.58-21.604,35.096-25.388,39.316c-0.703,0.785-7.139,7.82-16.442,13.177
	C111.883,180.513,104.661,182.629,97.819,182.629z"/>
<path d="M119.091,160.234c-0.877,0-1.72-0.493-2.125-1.337c-0.564-1.173-0.07-2.58,1.103-3.145
	c0.258-0.126,18.086-8.886,32.223-27.316l0.122-0.159l0.146-0.135c11.396-10.562,14.336-19.674,13.513-22.937
	c-0.219-0.87-0.607-0.971-0.815-1.023c-1.518-0.396-6.051,1.035-13.415,8.883c-20.776,22.142-45.849,31.611-46.906,32.005
	c-1.221,0.452-2.577-0.17-3.029-1.391c-0.453-1.221,0.169-2.576,1.389-3.029c0.248-0.092,25.12-9.508,45.109-30.812
	c7.354-7.836,13.589-11.371,18.032-10.22c2.129,0.551,3.623,2.126,4.205,4.434c1.394,5.527-2.626,16.134-14.732,27.409
	c-14.861,19.294-33.032,28.169-33.8,28.538C119.781,160.159,119.433,160.234,119.091,160.234z"/>
<path d="M87.032,128.427c-0.846,0-1.663-0.455-2.085-1.255c-0.608-1.15-0.169-2.576,0.982-3.186
	c13.274-7.021,32.315-19.397,46.006-28.583c10.367-9.317,20.538-13.527,27.234-11.262c2.956,1,4.968,3.27,5.519,6.228
	c0.468,2.51,0.46,9.262-9.694,17.722c-1,0.833-2.486,0.698-3.319-0.302s-0.698-2.484,0.302-3.318
	c4.211-3.509,8.853-9.08,8.078-13.237c-0.239-1.286-1.045-2.169-2.396-2.626c-3.746-1.268-11.935,0.701-22.693,10.41l-0.125,0.112
	l-0.14,0.095c-13.793,9.256-33.069,21.791-46.568,28.929C87.781,128.339,87.403,128.427,87.032,128.427z"/>
<path d="M87.386,197.885l-1.977-0.896c-12.591-5.713-29.413-15.76-38.05-31.188c-5.308-9.479-5.006-16.529-4.991-16.825l0.081-1.538
	l13.22-4.979c1.218-0.458,2.577,0.157,3.036,1.375s-0.156,2.576-1.375,3.036l-10.181,3.834c0.225,2.321,1.107,7.173,4.509,13.127
	c4.32,7.562,13.665,18.443,33.729,27.954l6.621-11.894c0.633-1.139,2.068-1.548,3.206-0.912c1.137,0.633,1.546,2.065,0.913,3.205
	L87.386,197.885z"/>
<path d="M370.829,156.219c-0.95,0-1.845-0.577-2.203-1.519c-4.326-11.354-7.688-13.587-13.796-17.643
	c-1.941-1.289-4.141-2.749-6.663-4.703c-4.403-3.165-5.951-8.79-3.521-12.83c1.219-2.022,6.343-8.046,21.125-0.629
	c2.103,1.055,7.566,3.976,12.903,8.294c6.089,4.928,10.019,10.035,11.675,15.182c0.398,1.239-0.281,2.567-1.521,2.966
	c-1.239,0.4-2.565-0.28-2.968-1.521c-1.371-4.26-4.787-8.621-10.151-12.963c-4.979-4.029-10.09-6.76-12.055-7.746
	c-8.882-4.455-13.614-3.405-14.972-1.151c-1.158,1.923-0.146,4.878,2.256,6.588l0.076,0.06c2.399,1.86,4.535,3.277,6.418,4.528
	c6.229,4.137,10.729,7.125,15.596,19.892c0.462,1.216-0.147,2.578-1.364,3.042C371.393,156.169,371.107,156.219,370.829,156.219z"/>
<path d="M401.493,130.382c-0.872,0-1.711-0.485-2.119-1.322c-6.589-13.499-17.676-19.973-34.599-26.592l-0.104-0.043
	c-9.304-4.161-16.055-2.953-17.913,0.392c-1.309,2.354,0.096,5.393,3.575,7.742c2.339,1.579,4.796,2.751,7.642,4.105
	c3.303,1.575,7.049,3.361,11.592,6.248c1.099,0.697,1.424,2.154,0.725,3.252c-0.697,1.101-2.154,1.423-3.253,0.727
	c-4.302-2.733-7.909-4.453-11.092-5.973c-2.89-1.377-5.619-2.679-8.249-4.454c-6.432-4.343-7.174-10.129-5.059-13.938
	c2.901-5.223,11.42-7.994,23.904-2.427c17.979,7.035,29.809,14.025,37.064,28.892c0.569,1.169,0.086,2.58-1.084,3.151
	C402.192,130.304,401.84,130.382,401.493,130.382z"/>
<path d="M412.349,115.813c-0.762,0-1.51-0.368-1.964-1.049c-0.019-0.028-2.339-3.438-9.748-11.257l-0.032-0.036
	c-8.281-9.13-15.372-10.926-23.581-13.005c-3.906-0.989-7.948-2.014-12.428-3.87l-0.119-0.055c-5.629-2.709-9.16-0.879-10.59,1.735
	c-1.221,2.233-1.121,5.47,1.469,7.063c1.107,0.684,1.453,2.136,0.771,3.243c-0.684,1.108-2.136,1.453-3.242,0.771
	c-4.443-2.738-5.791-8.473-3.131-13.338c1.389-2.538,3.686-4.357,6.465-5.121c3.062-0.842,6.604-0.367,10.242,1.37
	c4.143,1.711,7.994,2.688,11.725,3.632c8.568,2.171,16.666,4.222,25.896,14.388c7.748,8.181,10.132,11.717,10.229,11.863
	c0.724,1.083,0.432,2.546-0.651,3.269C413.252,115.685,412.798,115.813,412.349,115.813z"/>
<path d="M422.1,165.551c-0.569,0-1.145-0.205-1.598-0.625c-0.956-0.883-1.016-2.373-0.133-3.328
	c0.111-0.122,11.284-12.421,11.419-25.769c0.146-14.575-6.515-27.091-12.265-33.378c-8.21-8.978-14.224-12.094-22.543-16.406
	c-3.013-1.56-6.424-3.328-10.269-5.56c-5.563-3.23-10.539-4.004-13.647-2.124c-1.873,1.135-2.479,2.863-2.433,3.999
	c0.027,0.596,0.237,1.395,1.091,1.812c1.168,0.574,1.647,1.986,1.074,3.154c-0.572,1.168-1.984,1.65-3.154,1.075
	c-2.216-1.089-3.604-3.271-3.719-5.836c-0.142-3.24,1.658-6.396,4.699-8.237c2.719-1.646,8.732-3.564,18.455,2.08
	c3.746,2.175,6.961,3.84,10.069,5.452c8.424,4.366,15.076,7.812,23.852,17.41c6.633,7.252,13.661,20.677,13.501,36.605
	c-0.154,15.188-12.159,28.362-12.67,28.916C423.367,165.297,422.734,165.551,422.1,165.551z"/>
<path d="M388.645,184.972c-0.308,0-0.619-0.062-0.92-0.188c-19.301-8.175-29.814-17.356-31.254-27.29
	c-1.369-9.459,6.059-15.687,6.375-15.947c1.006-0.824,2.49-0.682,3.317,0.324c0.823,1.004,0.683,2.484-0.319,3.312
	c-0.111,0.096-5.712,4.899-4.703,11.682c0.838,5.621,6.447,14.272,28.422,23.581c1.199,0.507,1.76,1.891,1.252,3.089
	C390.434,184.431,389.561,184.972,388.645,184.972z"/>
<path d="M390.846,194.453c-2.902,0-5.892-0.255-8.955-0.812l-1.396-0.257l-0.429-1.354c-1.896-6.005-2.053-12.24-2.06-12.503
	l4.712-0.104c0.002,0.053,0.131,4.897,1.443,9.815c14.41,2.155,26.447-3.152,34.102-8.084c8.569-5.521,13.685-11.849,14.765-13.925
	c-1.332-2.079-5.399-7.113-8.199-10.419l3.598-3.045c1.326,1.565,8.003,9.509,9.212,12.051c0.708,1.488,0.055,3.326-2.26,6.346
	C428.982,180.51,412.299,194.453,390.846,194.453z"/>
</svg>
