<?xml version="1.0" encoding="utf-8"?>
<!-- Generator: Adobe Illustrator 16.0.4, SVG Export Plug-In . SVG Version: 6.00 Build 0)  -->
<!DOCTYPE svg PUBLIC "-//W3C//DTD SVG 1.1//EN" "http://www.w3.org/Graphics/SVG/1.1/DTD/svg11.dtd">
<svg version="1.1" id="Layer_1" xmlns="http://www.w3.org/2000/svg" xmlns:xlink="http://www.w3.org/1999/xlink" x="0px" y="0px"
	 width="500px" height="583px" viewBox="0 -264 500 583" enable-background="new 0 -264 500 583" xml:space="preserve">
<g>
	<g>
		<g>
			<defs>
				<path id="SVGID_1_" d="M138.849,38.294c0,0,2.25-8.25,12.75-12.75s37.5-12,48-12.75l-18.75,84l-21.75,153.001l-51.75-12
					L138.849,38.294z"/>
			</defs>
			<clipPath id="SVGID_2_">
				<use xlink:href="#SVGID_1_"  overflow="visible"/>
			</clipPath>
			<g clip-path="url(#SVGID_2_)">
				<text transform="matrix(0.1656 -0.9862 0.9862 0.1656 151.001 240.1973)" font-family="'Helvetica-Bold'" font-size="43.3425">SPACES OF</text>
			</g>
		</g>
	</g>
</g>
<g>
	<g>
		<g>
			<defs>
				<path id="SVGID_3_" d="M226.349,10.544c0,0,23.5-1,43,6c19.5,7,62.5,39.5,62.5,39.5l47.498,40c0,0,3.5,41,1,55l-162.5-118
					L226.349,10.544z"/>
			</defs>
			<clipPath id="SVGID_4_">
				<use xlink:href="#SVGID_3_"  overflow="visible"/>
			</clipPath>
			<g clip-path="url(#SVGID_4_)">
				<text transform="matrix(0.8145 0.5801 -0.5801 0.8145 229.3838 28.4551)" font-family="'Helvetica-Bold'" font-size="43.3392">LEARNING</text>
			</g>
		</g>
	</g>
</g>
<g>
	<g>
		<path fill="none" stroke="#EB008B" stroke-miterlimit="10" d="M111.663,247.579l-2.743-1.216c0,0,0.093-1.043,0.271-2.984"/>
		<path fill="none" stroke="#EB008B" stroke-miterlimit="10" stroke-dasharray="6.0538,6.0538" d="M109.753,237.355
			c3.639-38.494,18.6-188.139,33.11-208.35c0,0,26.324-14.808,73.183-18.634"/>
		<path fill="none" stroke="#EB008B" stroke-miterlimit="10" d="M219.07,10.144c0.989-0.069,1.987-0.134,2.994-0.193
			c0,0-1.107-0.066-2.954,0.441"/>
		<path fill="none" stroke="#EB008B" stroke-miterlimit="10" stroke-dasharray="5.9714,5.9714" d="M213.704,12.873
			c-9.458,6.045-24.258,24.542-29.751,81.044l-21.863,169.72"/>
		<polyline fill="none" stroke="#EB008B" stroke-miterlimit="10" points="161.707,266.613 161.323,269.589 158.581,268.373 		"/>
		
			<line fill="none" stroke="#EB008B" stroke-miterlimit="10" stroke-dasharray="5.7022,5.7022" x1="153.368" y1="266.062" x2="114.269" y2="248.734"/>
	</g>
</g>
<g>
	<g>
		<line fill="none" stroke="#EB008B" stroke-miterlimit="10" x1="197.648" y1="34.367" x2="200.116" y2="36.073"/>
		
			<line fill="none" stroke="#EB008B" stroke-miterlimit="10" stroke-dasharray="5.8649,5.8649" x1="204.939" y1="39.409" x2="376.184" y2="157.834"/>
		<path fill="none" stroke="#EB008B" stroke-miterlimit="10" d="M378.596,159.502l2.467,1.706c0,0,0-1.086-0.004-2.997"/>
		<path fill="none" stroke="#EB008B" stroke-miterlimit="10" stroke-dasharray="5.882,5.882" d="M381.033,152.331
			c-0.1-17.985-0.522-57.644-2.354-64.965c-2.326-9.307-72.268-77.704-155.432-76.989"/>
		<path fill="none" stroke="#EB008B" stroke-miterlimit="10" d="M220.301,10.432c-0.999,0.028-1.999,0.066-3,0.115"/>
	</g>
</g>
<g>
	<g>
		<path fill="none" stroke="#EB008B" stroke-miterlimit="10" d="M342.949,134.411c0,0-1.071,0.014-2.995,0.037"/>
		<path fill="none" stroke="#EB008B" stroke-miterlimit="10" stroke-dasharray="5.638,5.638" d="M334.318,134.52
			c-20.185,0.262-70.062,0.937-87.386,1.432"/>
		<path fill="none" stroke="#EB008B" stroke-miterlimit="10" d="M244.114,136.041c-1.529,0.055-2.56,0.107-2.994,0.155l0.308,2.984"
			/>
		
			<line fill="none" stroke="#EB008B" stroke-miterlimit="10" stroke-dasharray="5.7858,5.7858" x1="242.021" y1="144.935" x2="246.471" y2="188.1"/>
		<path fill="none" stroke="#EB008B" stroke-miterlimit="10" d="M246.768,190.977l0.308,2.984c0,0,1.067,0.007,2.997,0.007"/>
		<path fill="none" stroke="#EB008B" stroke-miterlimit="10" stroke-dasharray="5.7755,5.7755" d="M255.843,193.948
			c23.242-0.149,85.835-1.322,103.187-9.517c17.965-8.482,25.059-9.439,23.729-17.588"/>
		<path fill="none" stroke="#EB008B" stroke-miterlimit="10" d="M382.068,164.036c-0.271-0.871-0.607-1.81-1.008-2.828"/>
	</g>
</g>
<polygon fill="#FFFFFF" points="343.098,57.544 349.098,52.794 382.934,88.384 377.85,91.044 "/>
<path fill="#FFFFFF" d="M338.381,54.167c0,0-10.345,10.888-11.979,14.155c-1.633,3.266-5.443,10.616-1.633,15.243
	c3.812,4.627,8.166,3.267,8.166,3.267s-0.272,5.444,1.633,8.166c1.906,2.722,7.076,7.35,13.883,3.811C350.227,94.5,354,102,354,102
	s7.771,4.398,13.486,2.765c5.717-1.633,7.641-12.761,9.546-16.028c1.905-3.266-6.261-19.599-6.261-19.599L338.381,54.167z"/>
<path fill="#FFFFFF" d="M116.508,90.543c0,0,34.504,5.661,36.661,8.356c2.156,2.696,2.156,8.627,0.809,9.165
	c-1.348,0.539,1.887,8.356-1.887,11.053c-3.774,2.694-22.643-1.617-22.643-1.617l-0.809,3.503c0,0,28.304,5.661,26.687,16.443
	c-1.617,10.784-4.852,9.704-18.061,6.47c-13.208-3.235-16.38-2.02-16.38-2.02s-2.49,2.29-6.533,2.829s-3.504-16.443-3.504-16.443
	L116.508,90.543z"/>
<g>
	<g>
		<g>
			<defs>
				<path id="SVGID_5_" d="M343.6,135.795c0,0,27.938,19.312,36.75,25.688l-2.812,8.812l-73.188,17.248l-24-39.499L343.6,135.795z"
					/>
			</defs>
			<clipPath id="SVGID_6_">
				<use xlink:href="#SVGID_5_"  overflow="visible"/>
			</clipPath>
			<g clip-path="url(#SVGID_6_)">
				
					<text transform="matrix(-0.9796 0.2012 0.2012 0.9796 381.0977 162.9785)" fill="#231F20" font-family="'Helvetica-Bold'" font-size="43.3467">ING</text>
			</g>
		</g>
	</g>
</g>
<g>
	<g>
		<g>
			<defs>
				<path id="SVGID_7_" d="M201.474,26.669c0,0,3.738-5.703,8-10.125c2.849-2.957,6.204-4.793,7.827-5.997
					c4.048-3.003,11.923,3.747,11.923,3.747l-6.75,21l-13.125,1.5L201.474,26.669z"/>
			</defs>
			<clipPath id="SVGID_8_">
				<use xlink:href="#SVGID_7_"  overflow="visible"/>
			</clipPath>
			<g clip-path="url(#SVGID_8_)">
				<text transform="matrix(1 0 0 1 202.2217 31.168)" font-family="'Helvetica-Bold'" font-size="43.3423">F</text>
			</g>
		</g>
	</g>
</g>
<g>
	<g>
		<defs>
			<path id="SVGID_9_" d="M328.5,100.5c0,0,11.557,5.949,19.527,1.225c0,0,7.597,11.761,19.459,3.04
				c11.861-8.721,9.375-5.351,11.861-8.721s0.75,10.161,0.75,10.161l1.971,65.745c0,0,32.432,39.389,51.432-10.28
				s48-76.169,11-98.669s-52.805-43.5-82.902-34.5c0,0-11.267-1.078-27.279,8.294C318.307,46.167,289,93.5,312,100
				S328.5,100.5,328.5,100.5z"/>
		</defs>
		<clipPath id="SVGID_10_">
			<use xlink:href="#SVGID_9_"  overflow="visible"/>
		</clipPath>
		<path clip-path="url(#SVGID_10_)" d="M431.628,77.207c-4.599-4.976-10.734-7.594-16.405-6.997l-1.444,0.149
			c-1.035,0.106-2.063,0.213-3.077,0.328c-2.248-2.909-12.393-15.01-23.278-11.841c-0.409,0.119-0.845,0.265-1.298,0.431
			c-0.874-1.836-3.004-5.4-6.96-7.114c-2.552-1.104-5.362-1.253-8.388-0.451c-2.396-3.49-8.6-7.748-18.402-3.141
			c-7.365,3.46-28.6,15.461-29.535,24.9c-0.479,4.827-0.262,11.127,6.068,13.294c-1.256,4.384,0.296,11.224,5.004,14.667
			c1.6,1.17,3.8,2.146,6.688,2.146c0.717,0,1.479-0.063,2.282-0.196c-0.981,5.374-1.709,15.729,3.271,28.168
			c3.916,9.785,8.675,15.2,12.302,18.137l0.589,13.542l1.619,0.459c0.449,0.127,11.18,3.121,24.087,3.155
			c0.076,0.001,0.151,0.001,0.228,0.001c17.361,0,30.236-5.515,37.236-15.954l0.844-1.258l-8.807-13.969
			c1.45-4.203,2.83-9.686,3.819-16.793c1.275-9.17,7.19-14.765,11.943-19.26c3.329-3.151,6.205-5.871,6.821-9.194
			C437.555,86.523,435.56,81.462,431.628,77.207z M327.475,73.932c0.418-4.217,12.002-14.156,26.881-21.146
			c6.68-3.138,10.305-0.903,11.89,0.74c-6.55,3.339-15.267,10.046-21.55,15.493c-3.244,2.812-9.836,8.756-13.444,13.585
			C328.236,81.97,326.861,80.089,327.475,73.932z M336.66,97.674c-3.104-2.269-3.997-7.146-3.271-9.643
			c0.104-0.364,0.355-0.857,0.75-1.468c0.062-0.078,0.111-0.162,0.162-0.247c1.838-2.729,6.293-7.578,13.444-13.779
			c8.334-7.226,16.733-13.164,21.926-15.496c2.931-1.317,5.491-1.523,7.613-0.617c2.524,1.079,3.977,3.503,4.583,4.747
			c-12.202,6.186-31.486,21.193-33.251,27.632c-0.604,2.206-1.062,4.99-0.671,7.715C344.324,98.602,339.92,100.059,336.66,97.674z
			 M432.254,89.568c-0.339,1.832-2.704,4.069-5.441,6.659c-5.004,4.732-11.854,11.213-13.356,22.002
			c-2.865,20.586-9.171,26.32-9.334,26.463c-0.98,0.808-1.134,2.256-0.337,3.251c0.459,0.576,1.136,0.875,1.818,0.875
			c0.511,0,1.023-0.167,1.452-0.511c0.423-0.338,2.608-2.25,5.037-7.33l5.383,8.538c-13.8,18.267-46.307,11.896-53.931,10.097
			l-0.302-6.944c0.448,0.188,0.729,0.274,0.794,0.293c0.216,0.062,0.434,0.091,0.646,0.091c1.016,0,1.953-0.662,2.248-1.683
			c0.354-1.235-0.348-2.521-1.582-2.877c-0.021-0.007-2.129-0.687-4.988-3.283c-2.674-2.431-6.56-7.072-9.889-15.389
			c-3.391-8.469-3.815-15.848-3.576-20.548c0.188-3.682,0.799-6.336,1.131-7.548c0.496-0.23,1.004-0.488,1.521-0.769
			c0.067,0.105,0.128,0.214,0.2,0.317c1.899,2.735,5.021,4.316,9.274,4.699c0.547,0.049,1.088,0.073,1.627,0.073
			c2.381,0,4.672-0.472,6.834-1.281c0.281,3.235,1.525,8.177,5.662,14.236c0.451,0.661,1.182,1.016,1.924,1.016
			c0.453,0,0.91-0.131,1.312-0.405c1.062-0.726,1.334-2.174,0.609-3.236c-4.896-7.172-5.031-12.233-4.898-13.938
			c4.016-2.57,7.372-6.188,9.74-9.764c2.048-3.095,3.511-3.181,4.924-3.264c0.823-0.048,1.758-0.103,2.651-0.671
			c1.086-0.689,1.407-2.13,0.718-3.214c-0.657-1.035-1.992-1.375-3.057-0.81c-0.137,0.02-0.393,0.035-0.586,0.046
			c-1.817,0.107-5.199,0.306-8.533,5.342c-3.896,5.884-10.811,11.92-18.51,11.231c-2.817-0.253-4.793-1.168-5.867-2.718
			c-1.76-2.532-1.049-6.465-0.469-8.583c0.537-1.959,5.664-7.437,14.42-14.116c8.289-6.32,16.607-11.266,21.195-12.601
			c6.44-1.876,13.229,4.43,16.558,8.15c-6.425,1.22-11.474,3.644-12.48,10.261c-0.522,3.435,0.461,6.393,2.845,8.554
			c3.481,3.155,9.785,4.163,16.059,2.565c2.758-0.702,4.01-0.59,4.483-0.478c0.069,1.018,0.811,1.905,1.857,2.12
			c1.261,0.257,2.49-0.557,2.747-1.816c0.196-0.963,0.002-2.489-1.189-3.627c-1.681-1.602-4.642-1.834-9.048-0.713
			c-4.654,1.185-9.498,0.567-11.78-1.502c-1.206-1.093-1.654-2.532-1.369-4.402c0.843-5.535,6.356-6.357,16.852-7.438l1.454-0.15
			c4.22-0.44,8.893,1.624,12.499,5.526C431.073,83.468,432.699,87.166,432.254,89.568z"/>
	</g>
</g>
<g>
	<g>
		<defs>
			<polygon id="SVGID_11_" points="139.152,147.082 122.213,143.654 116.469,172.996 111.663,217.807 57.314,201.334 
				42.167,112.667 80.833,81.351 126.167,80.77 177.833,106.667 170.167,148.428 144.167,151.044 			"/>
		</defs>
		<clipPath id="SVGID_12_">
			<use xlink:href="#SVGID_11_"  overflow="visible"/>
		</clipPath>
		<path clip-path="url(#SVGID_12_)" d="M153.766,129.243c-1.884-2.129-7.265-4.617-13.435-6.944
			c5.124,1.316,11.667,2.132,13.957-4.045c1.217-3.282,1.427-6.186,0.648-8.688c1.069-1.692,2.528-4.987,1.411-9.274
			c-0.868-3.33-6.863-6.371-17.818-9.04c-9.256-2.255-18.686-3.312-24.024-2.692c-9.987,1.16-14.876,5.365-16.459,7.038
			c-4.107,0.518-6.854,0.969-6.944,0.985c-4.251,0.736-11.708,5.959-18.556,12.995c-4.697,4.826-12.764,14.344-14.012,23.868
			c-1.735,13.239,6.201,34.467,8.694,40.708l-8.923,6.271c-1.039,0.729-1.301,2.157-0.59,3.208c0.215,0.319,5.378,7.862,15.4,14.592
			c7.426,4.988,18.749,10.248,33.46,10.248c3.638,0,7.483-0.32,11.527-1.05c1.131-0.203,1.945-1.2,1.916-2.351l-0.396-15.506
			c4.971-3.543,9.533-8.668,9.577-15.566c0.065-10.475-0.465-23.789-0.695-29c5.405,1.125,12.397,2.491,17.865,3.26
			c0.723,0.102,1.397,0.149,2.026,0.149c4.725,0,6.906-2.627,7.823-4.333C158.2,140.387,157.824,133.831,153.766,129.243z
			 M115.042,93.185c4.594-0.534,13.321,0.443,21.718,2.43c10.24,2.424,14.561,5.005,15.096,5.91c0.337,1.333,0.268,2.495,0.043,3.44
			c-2.81-2.45-10.249-6.064-19.192-9.309c-5.385-1.953-15.119-1.83-23.818-1.167C110.6,93.935,112.634,93.464,115.042,93.185z
			 M124.542,173.973c-0.033,5.336-4.073,9.454-8.402,12.34c-0.103,0.057-0.2,0.121-0.292,0.192c-4.872,3.177-10,4.794-10.121,4.833
			c-1.229,0.376-1.92,1.68-1.544,2.907c0.307,1.002,1.229,1.646,2.226,1.646c0.226,0,0.456-0.033,0.683-0.102
			c0.354-0.109,3.841-1.203,7.946-3.396l0.275,10.771c-14.328,2.132-27.589-0.792-39.447-8.701
			c-6.477-4.321-10.829-9.089-12.899-11.62l8.44-5.932c0.002-0.001,0.004-0.004,0.006-0.006l0.012-0.006
			c0.003-0.004,0.005-0.006,0.008-0.008c0.124-0.089,0.238-0.188,0.341-0.295c0.008-0.009,0.014-0.018,0.022-0.025
			c0.095-0.104,0.181-0.215,0.255-0.33c0.009-0.014,0.017-0.028,0.025-0.045c0.069-0.113,0.129-0.231,0.178-0.356
			c0.006-0.015,0.01-0.03,0.016-0.044c0.046-0.127,0.083-0.256,0.106-0.389c0.002-0.012,0.003-0.024,0.005-0.037
			c0.022-0.137,0.034-0.272,0.032-0.41c0-0.012-0.001-0.023-0.001-0.034c-0.004-0.135-0.019-0.274-0.048-0.412
			c-0.002-0.013-0.007-0.024-0.01-0.038c-0.03-0.131-0.07-0.264-0.125-0.392c-0.001-0.002-0.004-0.011-0.006-0.015
			c-0.001-0.002-0.001-0.004-0.002-0.006c-0.326-0.773-10.895-26.092-9.07-40.013c1.796-13.707,22.487-31.795,28.746-32.88
			c8.979-1.556,31.323-4.002,39.223-1.137c9.391,3.407,16.083,6.88,17.842,8.551c0.441,0.418,0.877,0.923,1.209,1.57
			c0.004,0.009,0.009,0.019,0.013,0.028c0.68,1.346,0.901,3.313-0.262,6.453c-1.028,2.771-4.51,2.323-10.997,0.439l-0.098-0.029
			c-3.737-1.084-13.822-3.132-23.193-2.539c-0.247-0.022-0.49-0.005-0.723,0.049c-3.099,0.243-6.099,0.786-8.741,1.766
			c-1.194,0.118-6.598,0.521-12.5-1.164c-1.237-0.351-2.525,0.363-2.878,1.6c-0.227,0.796-0.01,1.611,0.502,2.187
			c-0.526,0.015-1.053,0.045-1.579,0.1c-10.825,1.128-13.865,2.939-14.365,3.292l2.681,3.808c0,0-0.024,0.02-0.08,0.053
			c0.025-0.015,2.649-1.521,12.246-2.52c7.663-0.797,15.95,3.949,21.433,7.09c1.606,0.92,2.994,1.715,4.087,2.202
			c1.296,0.578,2.165,1.792,2.382,3.331c0.296,2.095-0.651,4.238-2.601,5.881c-0.237,0.199-2.677,1.856-15.243-1.399
			c-6.869-1.779-13.217-4.122-13.28-4.146c-1.135-0.419-2.404,0.1-2.917,1.195c-0.855,1.826-5.659,3.229-8.638,3.602
			c-1.276,0.158-2.183,1.32-2.025,2.596c0.157,1.276,1.32,2.183,2.596,2.026c1.429-0.176,7.85-1.137,11.033-4.457
			c2.382,0.833,7.019,2.382,12.031,3.683c2.125,0.551,4.011,0.976,5.695,1.299c0.073,0.105,0.149,0.208,0.242,0.303
			c3.247,3.326,3.503,14.816,2.902,21.277c-0.119,1.279,0.822,2.416,2.102,2.533c0.074,0.008,0.147,0.011,0.219,0.011
			c1.188,0,2.203-0.904,2.315-2.11c0.151-1.609,1.158-13.781-1.886-21.217c0.58,0.035,1.122,0.054,1.622,0.054
			c3.595,0,5.247-0.858,6.233-1.69c0.866-0.729,1.607-1.545,2.225-2.417c0.64,0.144,1.703,0.379,3.074,0.677
			C123.979,147.936,124.612,162.646,124.542,173.973z M152.116,141.871c-0.827,1.539-2.544,2.136-5.1,1.777
			c-8.164-1.147-20.195-3.746-24.4-4.676c0.213-1.097,0.251-2.216,0.094-3.326c-0.442-3.116-2.348-5.708-5.099-6.933
			c-0.877-0.39-2.17-1.131-3.666-1.988c-2.944-1.686-6.923-3.963-11.357-5.621c2.6,0.042,4.302-0.176,4.44-0.194l0.274-0.037
			l0.257-0.099c2.248-0.87,4.9-1.361,7.703-1.583c12.163,3.362,32.052,9.786,35.016,13.136
			C152.586,134.938,153.445,139.396,152.116,141.871z"/>
	</g>
</g>
</svg>
