<?xml version="1.0" encoding="utf-8"?>
<!-- Generator: Adobe Illustrator 16.0.4, SVG Export Plug-In . SVG Version: 6.00 Build 0)  -->
<!DOCTYPE svg PUBLIC "-//W3C//DTD SVG 1.1//EN" "http://www.w3.org/Graphics/SVG/1.1/DTD/svg11.dtd">
<svg version="1.1" id="Layer_1" xmlns="http://www.w3.org/2000/svg" xmlns:xlink="http://www.w3.org/1999/xlink" x="0px" y="0px"
	 width="500px" height="348px" viewBox="0 20.789 500 348" enable-background="new 0 20.789 500 348" xml:space="preserve">
<g>
	<path fill="#FFFFFF" d="M153.077,51.164c0,0-9.492,15.892-16.325,16.419c-6.833,0.526-15.871-2.581-15.871-2.581
		S147.993,42.973,153.077,51.164z"/>
	<g>
		<path fill="#FFFFFF" stroke="#EB008B" stroke-miterlimit="10" stroke-dasharray="6" d="M149.276,160.074
			c0,0-15.298,32.294-8.499,54.732l-33.655-91.094c0,0-4.759-63.244,68.33-75.142c0,0,74.79-3.061,90.769,0
			c0,0-20.04-1.35-43.176,16.657"/>
		<g>
			<g>
				<defs>
					<path id="SVGID_1_" d="M142.527,219.484c0,0-12.103-17.957,6.042-57.834l58.557,34.209l-23.751,45.521L142.527,219.484z"/>
				</defs>
				<clipPath id="SVGID_2_">
					<use xlink:href="#SVGID_1_"  overflow="visible"/>
				</clipPath>
				<g clip-path="url(#SVGID_2_)">
					
						<text transform="matrix(0.8461 0.5331 0.5331 -0.8461 -5.957 74.3569)" font-family="'Helvetica-Bold'" font-size="42.9185" letter-spacing="1">LEARNING</text>
				</g>
			</g>
		</g>
		<g>
			<g>
				<defs>
					<path id="SVGID_3_" d="M128.076,182.388l-20.915-58.49l62.857-74.319c0,0,32.582-3.845,72.064-2.339
						c39.484,1.507-21.21,17.988-21.21,17.988L128.076,182.388z"/>
				</defs>
				<clipPath id="SVGID_4_">
					<use xlink:href="#SVGID_3_"  overflow="visible"/>
				</clipPath>
				<g clip-path="url(#SVGID_4_)">
					
						<text transform="matrix(-0.6481 0.7615 0.7615 0.6481 252.2432 7.5488)" font-family="'Helvetica-Bold'" font-size="42.9148" letter-spacing="1">LEARNING</text>
				</g>
			</g>
		</g>
		<g>
			<g>
				<defs>
					<path id="SVGID_5_" d="M216.695,68.243c0,0,39.958-31.61,67.657-14.741c27.7,16.868-5.977,37.841-5.977,37.841l-22.385,8.814
						L216.695,68.243z"/>
				</defs>
				<clipPath id="SVGID_6_">
					<use xlink:href="#SVGID_5_"  overflow="visible"/>
				</clipPath>
				<g clip-path="url(#SVGID_6_)">
					
						<text transform="matrix(-0.8165 -0.5773 -0.5773 0.8165 273.3311 91.0723)" font-family="'Helvetica-Bold'" font-size="42.9169" letter-spacing="1">LEARNING</text>
				</g>
			</g>
		</g>
		<g>
			<g>
				<defs>
					<polygon id="SVGID_7_" points="373.07,235.802 398.9,189.564 378.432,161.65 345.729,183.185 					"/>
				</defs>
				<clipPath id="SVGID_8_">
					<use xlink:href="#SVGID_7_"  overflow="visible"/>
				</clipPath>
				<g clip-path="url(#SVGID_8_)">
					
						<text transform="matrix(-0.5097 -0.8604 0.8604 -0.5097 408.207 216.8301)" font-family="'Helvetica-Bold'" font-size="42.9186" letter-spacing="1">ES</text>
				</g>
			</g>
		</g>
		<g>
			<g>
				<defs>
					<path id="SVGID_9_" d="M241.147,201.796l96.604,8.24h4.265c0,0,18.601,22.331,19.397,41.741
						c0.798,19.408-97.838-1.33-102.356-2.127c-4.521-0.799-35.095-28.98-35.095-28.98L241.147,201.796z"/>
				</defs>
				<clipPath id="SVGID_10_">
					<use xlink:href="#SVGID_9_"  overflow="visible"/>
				</clipPath>
				<g clip-path="url(#SVGID_10_)">
					
						<text transform="matrix(0.9934 0.1143 0.1143 -0.9934 250.1865 212.0361)" font-family="'Helvetica-Bold'" font-size="42.9189" letter-spacing="1">SPACES</text>
				</g>
			</g>
		</g>
		<path fill="none" stroke="#EB008B" stroke-miterlimit="10" stroke-dasharray="6" d="M149.276,160.074
			c0,0,70.029,39.093,185.613,40.794c0,0-68.668-95.525-111.844-135.641C223.046,65.228,182.251,85.284,149.276,160.074z"/>
		<path fill="none" stroke="#EB008B" stroke-miterlimit="10" stroke-dasharray="6" d="M266.221,48.57
			c93.146,18.695,137.342,126.8,135.64,134.619c-1.697,7.818-42.152,75.129-42.152,75.129c10.199-15.977-24.817-57.45-24.817-57.45"
			/>
		<path fill="none" stroke="#EB008B" stroke-miterlimit="10" stroke-dasharray="6" d="M140.778,214.807
			c0,0,7.139,29.914,50.652,36.713c43.514,6.801,109.462,17.679,131.222,16.319c21.757-1.358,32.72-2.265,37.055-9.521"/>
		
			<text transform="matrix(-0.6268 -0.7792 0.7792 -0.6268 352.3535 131.0586)" font-family="'Helvetica-Bold'" font-size="42.9171" letter-spacing="1">OF</text>
	</g>
</g>
<path fill="#FFFFFF" d="M302.713,275.793c0,0-7.3-9.793-8.818-13.795c-1.52-4.002-15.379-6.559-13.569-12.438
	s2.714-13.568,18.771-11.082c16.057,2.488,33.922,5.203,37.992,4.071c4.071-1.131,28.276,7.517,27.139,9.724
	C363.086,254.482,368.975,287.777,302.713,275.793z"/>
<path d="M398.053,308.734l-11.705-11.053c2.528-5.599,3.33-10.588,2.377-14.929c-3.021-13.752-15.151-29.142-29.502-37.425
	c-10.113-5.836-20.092-7.448-28.857-4.664c-0.28,0.09-0.536,0.221-0.764,0.387c-9.303-3.203-19.395-5.427-27.582-5.238
	c-2.188,0.054-4.217,0.045-6.006,0.035c-9.144-0.047-15.748-0.076-17.939,9.786c-0.855,3.851,0.052,7.593,2.621,10.826
	c2.378,2.985,6.123,5.379,10.342,6.787c0.615,8.59,7.475,13.616,13.223,15.95c-2.443,4.418-1.309,9.381,0.951,13.074
	c-1.02,0.383-1.915,0.896-2.646,1.545c-3.459,3.074-6.733,8.482-2.688,16.806c1.143,2.354,3.705,7.144,6.215,11.769
	c-2.249,5.688-3.798,17.737,5.537,25.575c3.887,3.265,7.656,4.83,11.133,5.354c0.559,0.085,1.106,0.139,1.646,0.172L334,364.355
	c0.432,0.486,1.008,0.79,1.623,0.884c0.441,0.066,0.9,0.023,1.339-0.138c0.569-0.211,14.113-5.258,28.547-14.313
	c19.739-12.386,30.962-25.721,33.354-39.634C399.014,310.265,398.712,309.355,398.053,308.734z M296.682,264.486
	c0.836,0.089,1.672,0.144,2.506,0.149c7.076,0.056,22.869,4.688,29.23,12.175c-8.658-2.896-15.287-4.373-19.945-1.888
	C305.709,274.094,298.217,271.247,296.682,264.486z M336.799,359.361l-5.818-6.589c4.168-1.154,7.375-3.341,9.062-4.489
	c1.232-0.841,1.553-2.522,0.71-3.756c-0.842-1.234-2.522-1.551-3.756-0.71c-5.627,3.837-13.201,7.307-21.894,0.009
	c-5.203-4.368-5.705-10.225-5.188-14.432c1.354,2.464,2.318,4.211,2.441,4.433c0.424,0.765,1.162,1.242,1.963,1.363
	c0.568,0.086,1.169-0.008,1.712-0.309c1.306-0.722,1.776-2.365,1.056-3.672c-0.1-0.18-9.875-17.853-12.352-22.95
	c-2.783-5.724-0.523-8.678,1.416-10.4c0.693-0.613,2.494-1.207,5.289-0.851c3.557,0.455,8.461,2.568,11.511,7.124
	c6.05,9.032,11.485,14.616,11.715,14.851c1.043,1.066,2.754,1.084,3.821,0.038c1.066-1.044,1.084-2.755,0.039-3.821
	c-0.051-0.052-5.312-5.454-11.086-14.073c-3.359-5.02-8.885-8.512-14.852-9.413c-0.154-0.022-0.309-0.047-0.464-0.063
	c-0.21-0.026-0.416-0.049-0.621-0.068c-1.848-1.835-4.856-6.514-2.167-10.331c2.631-3.739,8.676-2.399,21.229,2.017
	c12.31,4.332,21.414,14.773,21.52,14.895c0.973,1.131,2.68,1.258,3.811,0.287c1.131-0.973,1.262-2.678,0.289-3.811
	c-0.369-0.432-8.406-9.681-20.152-14.99c-3.789-13.312-27.133-20.34-36.805-20.414c-1.576-0.012-3.177-0.229-4.727-0.606
	c-0.105-0.032-0.213-0.06-0.32-0.075c-3.812-0.988-7.275-2.965-9.257-5.455c-1.542-1.938-2.073-4.055-1.577-6.287
	c1.163-5.229,2.822-5.604,12.641-5.557c1.824,0.01,3.894,0.021,6.156-0.033c12.771-0.298,31.89,6.19,42.996,12.635
	c10.746,6.235,21.412,26.937,21.518,27.146c0.679,1.328,2.308,1.856,3.636,1.179c1.33-0.679,1.856-2.308,1.179-3.636
	c-0.465-0.907-11.494-22.325-23.619-29.36c-2.574-1.496-5.562-3-8.812-4.436c6.688-0.006,12.941,2.646,17.479,5.266
	c12.928,7.461,24.25,21.719,26.926,33.9c3.4,15.48-26.266,42.321-37.981,51.357c-1.184,0.91-1.401,2.608-0.491,3.79
	c0.443,0.573,1.071,0.922,1.737,1.021c0.702,0.106,1.445-0.062,2.052-0.532c0.452-0.347,11.163-8.638,21.498-19.615
	c5.854-6.22,10.354-11.984,13.485-17.275l9.514,8.98C387.45,337.575,345.805,355.718,336.799,359.361z"/>
<path fill="#FFFFFF" d="M120.881,70.151c0,0,42.238-33.195,73.659-28.042c31.421,5.153,25.63,22.114,20.805,23.119
	c-4.825,1.004-11.157-0.093-14.172,2.415c-3.015,2.508-14.729,2.008-19.878-2.415c-5.149-4.424-8.755-1.389-14.188,2.069
	s-11.465,5.363-16.59,2.854c-5.126-2.508-8.442-3.016-10.553-0.905C137.853,71.357,120.881,70.151,120.881,70.151z"/>
<g>
	<g>
		<defs>
			<path id="SVGID_11_" d="M120.881,160.952c0,0-12.342-30.495-13.817-38.938c-1.475-8.443,11.877-48.837,17.827-48.26
				c5.949,0.578,10.094,1.192,13.488-0.15s6.71-3.344,7.012-5.961c0,0,3.733,3.871,11.214,6.205s17.265,0.628,19.007-8.62
				c0,0,9.684,8.138,13.787,8.342c4.104,0.204,21.443,4.323,21.443,4.323s25.31-15.28,11.741-39.101s-89.253-33.47-108.25-22.614
				c-18.996,10.855-68.446,90.156-49.45,120.912C83.879,167.846,120.881,160.952,120.881,160.952z"/>
		</defs>
		<clipPath id="SVGID_12_">
			<use xlink:href="#SVGID_11_"  overflow="visible"/>
		</clipPath>
		<path clip-path="url(#SVGID_12_)" d="M220.464,57.562c-0.943-6.287-9.114-10.989-17.402-15.267
			c-7.183-3.708-18.802-3.119-22.053-2.867c-0.459-0.249-0.924-0.501-1.396-0.758c-6.031-3.271-12.268-6.655-16.383-9.274
			c-9.395-5.979-19.456,0.856-24.374,6.2c-1.475-0.287-2.983-0.53-4.528-0.708c-11.095-1.281-17.403,3.187-20.742,7.158
			c-2.112,2.511-3.303,5.129-3.938,6.911c-12.229,0.041-16.467,5.627-17.209,6.778c-11.184,15.399-4.009,32.411-1.681,37.04
			c-2.026,5.488-2.405,11.275-1.172,17.115l-7.912,17.984c-0.425,0.967-0.249,2.093,0.452,2.882
			c0.991,1.117,23.907,26.54,54.822,26.539c1.009,0,2.03-0.027,3.056-0.083c0.985-0.053,1.863-0.641,2.289-1.53l10.029-20.904
			c4.811-2.995,9.587-7.752,12.029-15.3c1.792-5.538,5.529-12.316,9.143-18.872c5.813-10.545,11.385-20.652,11.319-28.614
			c2.255,1.227,4.875,1.829,7.448,1.829c4.138,0,8.145-1.534,10.27-4.431c0.354-0.483,0.665-0.969,0.958-1.458
			c2.418,0.789,4.506,1.113,6.292,1.113c3.345,0,5.649-1.113,7.164-2.323C219.638,64.565,220.988,61.057,220.464,57.562z
			 M133.708,40.257c18.007,2.078,31.169,13.055,34.359,16.737c1.241,1.431,1.873,3.726,1.611,5.845
			c-0.164,1.327-0.743,3.178-2.57,4.458c-1.333,0.934-7.761,4.567-18.009-3.055c-0.071-0.058-0.145-0.112-0.222-0.164
			c-1.279-0.968-2.619-2.114-4.015-3.459c-0.873-3.312-3.008-6.258-5.821-7.502c-5.32-2.352-13.26-3.712-23.631-4.065
			C117.287,45.081,122.104,38.917,133.708,40.257z M168.759,97.996c-3.737,6.778-7.6,13.786-9.552,19.816
			c-2.002,6.189-5.989,10.083-9.994,12.531c-0.235,0.098-0.456,0.229-0.656,0.391c-5.322,3.048-10.486,3.608-10.866,3.646
			c-1.482,0.141-2.571,1.458-2.433,2.94c0.131,1.401,1.308,2.452,2.687,2.452c0.084,0,0.169-0.003,0.255-0.012
			c0.291-0.027,2.908-0.301,6.425-1.438l-6.501,13.552c-25.282,0.578-45.764-18.396-50.778-23.472l4.774-10.852
			c0.277,0.613,0.568,1.225,0.882,1.834c3.569,6.967,8.175,11.359,8.37,11.543c0.521,0.493,1.188,0.736,1.853,0.736
			c0.717,0,1.431-0.283,1.963-0.844c1.026-1.082,0.979-2.792-0.101-3.819c-0.042-0.04-4.213-4.041-7.348-10.225
			c-1.206-2.377-2.091-4.734-2.669-7.066c-0.023-0.127-0.058-0.252-0.099-0.374c-1.265-5.396-0.849-10.65,1.253-15.694
			c0.324-0.778,0.264-1.668-0.159-2.399c-0.413-0.712-9.991-17.63,0.796-32.397c0.07-0.096,0.082-0.104,0.131-0.194
			c0.283-0.405,3.247-4.292,12.787-4.292c12.414,0,21.524,1.245,27.078,3.7c1.908,0.843,3.605,4.349,2.866,7.239
			c-0.904,3.53-5.078,3.933-8.423,3.647c-14.527-1.236-18.896-2.771-18.913-2.777c-0.786-0.302-1.659-0.288-2.375,0.152
			c-0.709,0.435-1.169,1.107-1.263,1.931c-0.088,0.371-0.72,2.436-4.025,3.02c-1.47,0.259-2.451,1.661-2.191,3.131
			c0.259,1.469,1.661,2.454,3.131,2.191c3.875-0.684,6.141-2.71,7.341-4.671c2.789,0.638,8.184,1.588,17.837,2.411
			c3.158,0.268,5.617-0.063,7.539-0.728c-3.476,3.184-6.082,3.812-6.098,3.815c-1.466,0.281-2.427,1.696-2.146,3.163
			c0.248,1.294,1.38,2.194,2.651,2.194c0.169,0,0.34-0.016,0.511-0.048c0.335-0.064,7.781-1.611,14.911-12.562
			c4.787,3.027,9.214,4.256,13.05,4.256c3.551,0,6.597-1.052,8.949-2.698c2.395-1.677,4.015-4.168,4.643-7.098
			c0.924,0.732,1.929,1.521,2.955,2.315c0.077,0.328,0.212,0.648,0.417,0.941C182.222,73.576,175.069,86.549,168.759,97.996z
			 M198.17,66.192c-2.123,2.896-8.38,2.798-11.503,0.613c-3.997-2.797-10.304-7.874-12.299-9.492
			c-0.508-1.43-1.254-2.748-2.216-3.859c-3.073-3.546-12.941-11.987-27.064-16.305c3.563-3.056,9.619-6.772,15.24-3.193
			c4.276,2.72,10.596,6.149,16.709,9.465c8.542,4.633,19.171,10.4,21.249,12.859C200.825,59.289,200.786,62.624,198.17,66.192z
			 M213.567,62.498c-1.716,1.372-4.577,1.497-8.155,0.379c0.585-3.538-0.412-7.022-2.998-10.084
			c-1.676-1.985-5.608-4.537-11.653-7.977c3.545,0.279,7.21,0.934,9.823,2.282c4.167,2.151,13.923,7.187,14.536,11.266
			C215.307,59.613,214.997,61.356,213.567,62.498z"/>
	</g>
</g>
</svg>
